<svg xmlns="http://www.w3.org/2000/svg" width="512" height="512" viewBox="0 0 512 512">
  <rect width="512" height="512" rx="96" fill="#6366f1"/>
  <rect x="96" y="128" width="320" height="288" rx="24" fill="white" fill-opacity="0.95"/>
  <rect x="96" y="128" width="320" height="64" rx="24" fill="#6366f1"/>
  <rect x="96" y="160" width="320" height="32" fill="#6366f1"/>
  <circle cx="160" cy="112" r="16" fill="white"/>
  <rect x="152" y="88" width="16" height="48" rx="8" fill="white"/>
  <circle cx="352" cy="112" r="16" fill="white"/>
  <rect x="344" y="88" width="16" height="48" rx="8" fill="white"/>
  <rect x="128" y="224" width="48" height="48" rx="8" fill="#6366f1" fill-opacity="0.15"/>
  <rect x="192" y="224" width="48" height="48" rx="8" fill="#6366f1" fill-opacity="0.15"/>
  <rect x="256" y="224" width="48" height="48" rx="8" fill="#6366f1"/>
  <rect x="320" y="224" width="48" height="48" rx="8" fill="#6366f1" fill-opacity="0.15"/>
  <rect x="128" y="288" width="48" height="48" rx="8" fill="#6366f1" fill-opacity="0.15"/>
  <rect x="192" y="288" width="48" height="48" rx="8" fill="#6366f1"/>
  <rect x="256" y="288" width="48" height="48" rx="8" fill="#6366f1" fill-opacity="0.15"/>
  <rect x="320" y="288" width="48" height="48" rx="8" fill="#6366f1" fill-opacity="0.15"/>
  <rect x="128" y="352" width="48" height="32" rx="8" fill="#6366f1" fill-opacity="0.15"/>
  <rect x="192" y="352" width="48" height="32" rx="8" fill="#6366f1" fill-opacity="0.15"/>
  <rect x="256" y="352" width="48" height="32" rx="8" fill="#6366f1" fill-opacity="0.15"/>
  <rect x="320" y="352" width="48" height="32" rx="8" fill="#6366f1" fill-opacity="0.15"/>
</svg>
